<svg xmlns="http://www.w3.org/2000/svg" version="1.0" preserveAspectRatio="xMidYMid meet" viewBox="771 466.12 1275 603.65">

<g transform="translate(0.000000,1536.000000) scale(0.100000,-0.100000)" fill="#000000" stroke="none">
<path d="M8806 10689 c-162 -21 -316 -73 -456 -156 -218 -128 -375 -292 -483 -508 -82 -162 -114 -267 -142 -469 -12 -85 -15 -458 -15 -2421 0 -1276 4 -2326 8 -2333 26 -41 363 -125 547 -138 115 -7 309 8 435 36 356 77 663 307 918 685 330 492 594 1336 793 2535 17 107 35 198 38 202 8 10 138 -360 225 -642 35 -113 116 -369 179 -570 63 -201 127 -405 141 -455 14 -49 55 -182 91 -295 36 -113 93 -295 126 -405 184 -601 222 -708 290 -810 123 -184 291 -274 509 -275 157 0 298 55 414 161 89 82 126 140 215 344 141 320 220 444 406 630 82 82 155 144 228 194 303 204 585 289 1332 400 308 46 450 75 688 141 65 18 119 31 121 29 2 -2 24 -60 50 -129 26 -69 95 -240 152 -380 58 -140 132 -322 166 -405 242 -599 527 -887 962 -970 92 -18 361 -21 491 -6 141 17 185 23 185 28 0 9 -92 216 -127 288 -41 82 -320 707 -468 1045 -210 483 -445 1078 -445 1127 0 8 42 58 93 111 314 329 582 804 882 1567 47 121 90 229 94 240 8 19 9 19 19 -5 5 -14 39 -92 75 -175 132 -307 171 -412 727 -1955 139 -387 187 -513 267 -705 41 -99 93 -225 115 -280 63 -158 174 -399 240 -519 104 -192 183 -303 298 -417 199 -197 387 -296 655 -344 107 -20 349 -18 498 3 l117 17 -196 400 c-173 353 -238 488 -402 835 -83 175 -257 581 -317 740 -35 91 -92 239 -128 330 -80 204 -154 401 -217 579 -26 75 -78 217 -115 316 -37 99 -102 286 -145 415 -116 351 -351 970 -522 1375 -177 422 -345 683 -531 831 -152 119 -273 164 -447 165 -222 2 -391 -70 -555 -235 -140 -140 -175 -215 -460 -971 -54 -143 -134 -348 -179 -455 -84 -203 -323 -691 -342 -697 -6 -2 -23 29 -39 69 -111 289 -184 471 -231 580 -30 70 -54 129 -54 132 0 12 -205 457 -280 606 -186 372 -308 561 -449 692 -219 203 -399 278 -666 279 -193 1 -327 -34 -474 -123 -181 -109 -313 -251 -455 -486 -68 -113 -299 -578 -358 -722 -20 -47 -67 -161 -106 -255 -88 -211 -316 -820 -417 -1112 -122 -350 -138 -401 -251 -753 -59 -184 -111 -344 -117 -355 -10 -19 -11 -18 -23 10 -29 69 -273 816 -719 2210 -139 432 -207 635 -367 1098 -53 154 -96 224 -192 313 -137 130 -278 182 -464 171 -120 -6 -174 -25 -279 -94 -200 -131 -285 -293 -323 -618 -7 -55 -26 -190 -41 -300 -16 -110 -43 -299 -59 -420 -31 -226 -54 -378 -95 -640 -13 -82 -33 -215 -45 -295 -111 -724 -346 -1636 -543 -2105 -30 -71 -65 -155 -78 -185 -12 -30 -29 -64 -37 -75 -16 -22 -16 -25 7 110 7 40 11 615 11 1716 0 1004 4 1727 10 1835 20 352 86 717 175 972 19 56 35 104 35 107 0 7 -92 4 -174 -6z m5554 -195 c149 -38 341 -165 441 -291 33 -41 59 -78 59 -83 0 -4 -21 -1 -47 7 -70 21 -225 21 -298 -1 -142 -42 -261 -137 -360 -286 -59 -89 -226 -418 -312 -615 -34 -77 -87 -198 -118 -270 -60 -136 -196 -485 -270 -690 -24 -66 -67 -181 -95 -255 -124 -325 -362 -1042 -509 -1535 -28 -93 -90 -300 -139 -460 -49 -159 -108 -355 -131 -435 -131 -453 -215 -606 -376 -687 -143 -72 -355 -49 -463 51 -115 105 -144 167 -265 566 -95 312 -226 732 -332 1070 -46 146 -105 333 -130 415 -177 574 -236 755 -414 1283 -129 382 -202 585 -205 570 -3 -12 -16 -93 -30 -178 -130 -784 -262 -1446 -386 -1923 -117 -456 -279 -869 -455 -1165 -105 -176 -161 -250 -286 -373 -258 -256 -510 -359 -875 -359 -125 0 -288 19 -317 37 -4 3 14 19 40 35 110 70 326 263 435 388 168 194 248 313 379 565 190 366 385 969 529 1640 22 105 50 231 60 280 24 109 52 273 124 715 54 329 69 436 161 1110 25 184 52 382 60 440 36 252 199 429 415 446 161 14 340 -79 413 -213 23 -44 117 -303 212 -588 100 -299 270 -822 395 -1210 309 -963 411 -1272 669 -2022 31 -90 59 -163 62 -163 4 0 19 39 34 88 15 48 58 179 96 292 39 113 81 241 95 285 85 267 262 794 389 1155 92 262 299 796 423 1090 78 185 271 591 334 702 209 370 425 549 710 588 76 10 203 3 278 -16z m3229 -9 c100 -32 212 -105 279 -183 136 -157 285 -437 468 -879 62 -149 341 -896 424 -1133 43 -124 102 -290 130 -370 29 -80 67 -188 85 -240 53 -156 300 -809 395 -1045 223 -557 309 -748 603 -1346 107 -218 198 -406 201 -417 6 -18 2 -20 -79 -21 -160 -3 -350 31 -470 84 -201 89 -417 305 -546 546 -124 231 -354 764 -504 1165 -61 165 -90 243 -229 629 -35 99 -109 304 -164 455 -56 151 -145 399 -200 551 -89 245 -163 435 -294 749 -57 135 -230 524 -238 533 -7 8 -38 -70 -201 -498 -163 -428 -355 -853 -492 -1090 -68 -118 -222 -345 -294 -435 -151 -187 -354 -378 -561 -527 -159 -114 -408 -230 -637 -296 -235 -68 -245 -70 -1045 -202 -318 -52 -546 -115 -768 -211 -201 -87 -334 -178 -494 -336 -55 -55 -102 -97 -105 -95 -16 16 170 493 242 622 80 143 225 308 365 414 237 180 442 257 980 366 331 68 402 86 689 177 152 48 338 148 476 257 155 123 373 383 489 585 114 198 275 545 403 871 116 296 217 556 278 720 31 83 79 197 107 255 44 89 64 118 133 187 64 65 99 91 160 119 147 71 276 82 414 39z m-8886 -87 c-29 -101 -66 -312 -89 -508 -15 -128 -18 -351 -24 -1925 -6 -1246 -11 -1804 -19 -1860 -21 -147 -62 -329 -95 -426 -60 -175 -187 -357 -334 -482 -78 -65 -230 -162 -240 -153 -4 4 -7 1007 -7 2229 0 2121 1 2227 19 2322 58 312 220 575 450 729 100 67 210 122 279 141 89 24 87 26 60 -67z m6063 -446 c123 -43 279 -172 346 -287 44 -77 358 -741 358 -759 0 -3 34 -85 76 -183 42 -98 112 -267 155 -377 l80 -198 -28 -37 c-59 -79 -251 -260 -338 -318 -86 -57 -168 -103 -221 -123 -21 -9 -26 -5 -44 30 -11 21 -61 144 -110 272 -50 128 -111 280 -135 338 -24 58 -55 134 -68 170 -41 108 -201 486 -266 629 -79 172 -233 478 -271 539 l-29 47 20 33 c54 93 161 189 246 222 62 24 162 25 229 2z m-532 -566 c129 -238 346 -732 524 -1191 111 -285 142 -365 190 -480 28 -66 47 -123 44 -127 -15 -14 -212 -61 -542 -127 -703 -143 -928 -240 -1232 -530 -70 -66 -78 -70 -54 -23 7 15 48 131 91 257 187 556 336 971 460 1285 158 402 438 1040 456 1040 4 0 33 -47 63 -104z m2033 -2447 c19 -46 79 -201 134 -344 141 -364 237 -589 509 -1185 205 -449 251 -560 233 -567 -25 -10 -303 5 -385 21 -295 57 -538 268 -696 607 -131 279 -483 1152 -470 1164 2 2 41 21 88 42 123 57 276 151 406 249 62 46 116 89 119 95 14 21 30 0 62 -82z"/>
</g>
</svg>